HIERARCHY
ROOT pelvis
{
  OFFSET 0 100 0
  CHANNELS 6 Xposition Yposition Zposition Zrotation Xrotation Yrotation
  JOINT pelvis_right_femur
  {
    OFFSET -10.78128 -3.44521 -0.5502486
    CHANNELS 3 Zrotation Xrotation Yrotation
    JOINT right_femur_tibia
    {
      OFFSET -0.8047443 -44.0398 -0.1307829
      CHANNELS 3 Zrotation Xrotation Yrotation
      JOINT right_tibia_foot
      {
        OFFSET 3.006224 -47.83518 -5
        CHANNELS 3 Zrotation Xrotation Yrotation
        End Site
        {
          OFFSET 0 -5 15
        }
      }
    }
  }
  JOINT pelvis_left_femur
  {
    OFFSET 10.78128 -3.44521 -0.5502486
    CHANNELS 3 Zrotation Xrotation Yrotation
    JOINT left_femur_tibia
    {
      OFFSET 0.8047443 -44.0398 -0.1307829
      CHANNELS 3 Zrotation Xrotation Yrotation
      JOINT left_tibia_foot
      {
        OFFSET -4.370144 -48.10324 -4.275266
        CHANNELS 3 Zrotation Xrotation Yrotation
        End Site
        {
          OFFSET 0 -5 15
        }
      }
    }
  }
  JOINT pelvis_spine1
  {
    OFFSET 0 6.468898 -3.129235
    CHANNELS 3 Zrotation Xrotation Yrotation
    JOINT spine1
    {
      OFFSET 0 23.15396 4.99043
      CHANNELS 3 Zrotation Xrotation Yrotation
      JOINT spine2
      {
        OFFSET 0 20.79997 -5.064912
        CHANNELS 3 Zrotation Xrotation Yrotation
        JOINT neck
        {
          OFFSET 0 14.38658 9.616178
          CHANNELS 3 Zrotation Xrotation Yrotation
          End Site
          {
            OFFSET 0 20 0
          }
        }
      }
      JOINT right_manubrium
      {
        OFFSET -5.722621 16.35077 3.967754
        CHANNELS 3 Zrotation Xrotation Yrotation
        JOINT right_clavicle
        {
          OFFSET -13.16364 1.694482 -4.693211
          CHANNELS 3 Zrotation Xrotation Yrotation
          JOINT right_humerus
          {
            OFFSET -28.5034 -0.3100689 -2.792744
            CHANNELS 3 Zrotation Xrotation Yrotation
            JOINT right_radius
            {
              OFFSET -25.15693 0.02248979 -1.271978
              CHANNELS 3 Zrotation Xrotation Yrotation
              End Site
              {
                OFFSET -15 0 0
              }
            }
          }
        }
      }
      JOINT left_manubrium
      {
        OFFSET 5.722621 16.35077 3.967754
        CHANNELS 3 Zrotation Xrotation Yrotation
        JOINT left_clavicle
        {
          OFFSET 13.16364 1.694482 -4.693211
          CHANNELS 3 Zrotation Xrotation Yrotation
          JOINT left_humerus
          {
            OFFSET 29.39168 -1.063119 -2.237045
            CHANNELS 3 Zrotation Xrotation Yrotation
            JOINT left_radius
            {
              OFFSET 24.59957 -0.9528479 0.9047498
              CHANNELS 3 Zrotation Xrotation Yrotation
              End Site
              {
                OFFSET 15 -0 -0
              }
            }
          }
        }
      }
    }
  }
}
MOTION
Frames: 19
Frame Time: 0.0416666666667
0 103.5113 0 2.289178 0.02820958 0.03346757 3.8562 -14.73116 11.8718 -0 37.18326 -0 -5.279478 -17.76134 -4.41444 -8.419261 9.119379 -21.10395 -0 5.465503 -0 22.77838 -9.821865 29.6018 -2.713757 -3.154605 4.986042 2.656768 9.856724 -8.228853 1.76593 20.58859 6.253354 2.8724 -26.32048 9.75342 5.155798 -20.41751 10.91926 87.23033 36.12062 -19.88936 -0 0 16.66491 -7.668621 8.606194 3.144773 7.353388 -20.81633 0.1088813 -92.86851 22.03048 21.1312 0 0 -14.19475 14.20513 15.79584 -2.59619
0.3770763 103.6033 1.573267 1.566424 1.155888 0.0597472 5.007261 -18.04739 12.48627 -0 38.17938 -0 -5.186885 -16.29344 -3.738663 -8.154255 8.884114 -21.15108 -0 5.819347 -0 22.48177 -10.39617 29.60627 -2.609533 -2.91736 4.610522 2.944548 9.702095 -8.367226 1.734722 20.22108 6.625282 3.18976 -26.9338 9.909056 5.282934 -19.77539 11.11849 87.38999 35.81057 -20.32534 -0 0 15.84359 -7.597248 8.685317 3.212279 7.275425 -20.82095 0.05624714 -92.49025 21.57791 20.14467 0 0 -14.89904 14.1553 15.30072 -2.884339
0.6173771 103.4533 3.490227 1.192276 0.5547581 0.159221 4.660936 -19.55714 8.85868 -0 34.57012 -0 -6.119119 -14.33566 -2.737978 -7.703061 10.45369 -20.98383 -0 6.353161 -0 16.68963 -14.44071 27.99543 -2.341631 -2.810355 4.805799 2.750824 9.811042 -8.200599 1.697245 20.39742 6.563734 3.205339 -26.43458 9.672162 5.400538 -19.63749 11.09769 87.05764 35.61171 -20.14299 -0 0 15.70577 -7.951214 9.133267 3.631581 7.24609 -21.00805 -0.1486869 -92.69185 22.43094 20.59723 0 0 -15.35139 13.12356 15.48649 -1.217702
0.7891192 103.1988 5.807324 0.5473722 0.6120929 0.2539862 5.106772 -22.63097 6.824678 -0 31.91215 -0 -6.966159 -11.73455 -1.799938 -7.164657 11.31817 -20.33863 -0 7.311182 -0 13.64045 -16.86168 26.58761 -2.202599 -2.684518 4.769537 2.761504 9.803054 -8.173734 1.667012 20.36217 6.649569 3.308072 -26.40496 9.608863 5.482745 -19.38395 11.15204 86.9621 35.43781 -20.18495 -0 0 15.39215 -8.0937 9.329723 3.842195 7.199761 -21.07906 -0.2547126 -92.64852 22.63488 20.47941 0 0 -15.74424 12.66045 15.39246 -0.6033404
0.9146034 102.806 8.548213 0.04929261 0.4948383 0.3573199 5.389619 -25.27868 4.800042 -0 28.73565 -0 -7.939853 -9.117122 -0.9732503 -6.691078 12.15049 -19.35581 -0 8.52373 -0 11.50489 -18.6434 25.10918 -2.063943 -2.547054 4.671813 2.780801 9.720749 -8.152493 1.638726 20.27471 6.832089 3.503699 -26.42998 9.596336 5.678187 -19.00622 11.18013 86.85135 35.31413 -20.36723 -0 0 15.0255 -8.092016 9.516725 3.984911 7.195365 -21.1416 -0.3837703 -92.6724 23.09946 20.32458 0 0 -16.34025 11.9766 15.29614 0.3548144
1.013321 102.3103 11.77426 -0.3885249 0.383266 0.4819662 5.661355 -27.76112 2.930701 -0 25.33272 -0 -8.97658 -6.364691 -0.1486856 -6.271758 12.92528 -18.13125 -0 10.20863 -0 10.12819 -19.81501 23.58172 -1.940383 -2.392551 4.532343 2.84581 9.623724 -8.158083 1.604617 20.15582 7.02885 3.702652 -26.52797 9.594579 5.848282 -18.61278 11.23426 86.77713 35.16179 -20.56283 -0 0 14.60831 -8.095032 9.66363 4.131564 7.163883 -21.17929 -0.5078717 -92.62772 23.40461 20.06754 0 0 -16.90329 11.38167 15.12721 1.115922
1.097638 101.7647 15.52662 -0.7312905 0.2165089 0.6438219 5.831438 -29.65218 1.189193 -0 22.03346 -0 -10.00816 -3.68902 0.6547409 -5.917955 13.65811 -16.80334 -0 12.47047 -0 9.040005 -20.36601 21.89592 -1.813666 -2.223963 4.386181 2.916693 9.518062 -8.163899 1.563425 20.04078 7.22519 3.902103 -26.61399 9.576915 6.014802 -18.21176 11.29306 86.69241 34.99869 -20.74544 -0 0 14.1752 -8.120524 9.80621 4.306833 7.116072 -21.20836 -0.6463338 -92.57226 23.71726 19.81171 0 0 -17.47099 10.73218 14.93718 1.931242
1.178236 101.265 19.8434 -1.031608 0.006279331 0.8496176 5.994233 -30.83458 -0.3011 -0 19.26683 -0 -11.00698 -1.150263 1.442489 -5.582068 14.27106 -15.42871 -0 15.62299 -0 7.959725 -20.15572 19.94277 -1.683491 -2.043264 4.260755 2.984097 9.431579 -8.163227 1.512617 19.95602 7.384192 4.069168 -26.6505 9.516292 6.143526 -17.84365 11.36285 86.59185 34.81574 -20.85861 -0 0 13.74364 -8.229045 9.9527 4.543991 7.037618 -21.23429 -0.7937272 -92.48649 23.9691 19.57791 0 0 -17.97614 10.08092 14.72811 2.722461
1.264258 100.9391 24.73819 -1.347506 -0.2337576 1.081527 6.272937 -31.2146 -1.357628 -0 17.39074 -0 -11.91236 1.119501 2.150572 -5.202035 14.61953 -14.03278 -0 19.95364 -0 6.67226 -19.03802 17.6658 -1.549559 -1.854918 4.179354 3.027943 9.377513 -8.143419 1.452124 19.92603 7.487466 4.191316 -26.59404 9.395914 6.231826 -17.52808 11.43635 86.46142 34.6278 -20.87505 -0 0 13.33938 -8.442345 10.11162 4.853225 6.9291 -21.26338 -0.9511281 -92.38833 24.19724 19.40921 0 0 -18.39874 9.406173 14.52144 3.540566
1.364173 100.9299 30.18758 -1.736133 -0.4869461 1.287757 6.79332 -30.74881 -1.796711 -0 16.56601 -0 -12.64994 2.962407 2.672851 -4.712943 14.48308 -12.61146 -0 25.73444 -0 5.114156 -16.899 15.1188 -1.415713 -1.663509 4.16253 3.033152 9.370931 -8.094856 1.382823 19.96974 7.517026 4.255248 -26.41381 9.203235 6.271392 -17.28709 11.51052 86.29308 34.44831 -20.76401 -0 0 12.98679 -8.785046 10.2867 5.242303 6.789297 -21.29929 -1.11336 -92.28361 24.40044 19.33 0 0 -18.7068 8.72082 14.32904 4.380148
1.485086 101.3633 36.11334 -2.211354 -0.7538965 1.382703 7.583161 -29.36918 -1.530814 -0 16.64385 -0 -13.12813 4.173739 2.869334 -4.07852 13.57878 -11.17325 -0 33.07334 -0 3.346526 -13.77276 12.50191 -1.287308 -1.4743 4.22774 2.983649 9.419997 -8.006818 1.307417 20.0998 7.462486 4.255605 -26.0856 8.933041 6.260411 -17.13888 11.57994 86.07549 34.29771 -20.49759 -0 0 12.71699 -9.271383 10.47921 5.711304 6.621322 -21.34233 -1.273507 -92.1841 24.59214 19.36409 0 0 -18.88088 8.028051 14.16321 5.250646
1.63076 102.3063 42.36933 -2.70544 -1.070045 1.264703 8.489371 -26.94128 -0.6721114 -0 17.13124 -0 -13.28927 4.541072 2.635872 -3.321901 11.58689 -9.779555 -0 41.76317 -0 1.513711 -9.943595 10.14332 -1.170355 -1.292832 4.390713 2.86468 9.527804 -7.868421 1.230241 20.32014 7.317976 4.191703 -25.59488 8.586142 6.19603 -17.10268 11.63961 85.79252 34.19751 -20.04079 -0 0 12.56733 -9.91607 10.68979 6.259414 6.431167 -21.38925 -1.419977 -92.09718 24.77333 19.52794 0 0 -18.90786 7.340024 14.03059 6.144317
1.7971 103.722 48.74277 -3.039629 -1.505972 0.8589273 9.142814 -23.29255 0.4006244 -0 17.25072 -0 -13.18646 3.934664 2.013548 -2.556204 8.220037 -8.562872 -0 51.06171 -0 -0.2074545 -6.019739 8.418455 -1.070172 -1.12521 4.665269 2.662558 9.689208 -7.668204 1.157423 20.6234 7.083507 4.068898 -24.93793 8.170061 6.074425 -17.19896 11.68373 85.41917 34.16909 -19.34955 -0 0 12.58447 -10.73404 10.91917 6.885871 6.229684 -21.4323 -1.536637 -92.02678 24.93709 19.8331 0 0 -18.78672 6.672123 13.93194 7.04401
1.966021 105.4444 54.98847 -2.956041 -2.127824 0.1836471 9.082554 -18.35875 1.132488 -0 16.20754 -0 -13.02644 2.456993 1.277293 -1.97105 3.354864 -7.679318 -0 59.52845 -0 -1.615551 -2.844822 7.599653 -0.9901992 -0.9782217 5.061937 2.366795 9.889139 -7.395514 1.096707 20.98732 6.765418 3.898165 -24.12578 7.699274 5.888919 -17.44971 11.70602 84.91987 34.22746 -18.36981 -0 0 12.82495 -11.74106 11.16797 7.591763 6.033301 -21.45809 -1.602945 -91.9702 25.06244 20.28399 0 0 -18.53036 6.045234 13.85876 7.917328
2.103198 107.1972 60.9072 -2.277812 -2.919955 -0.6045443 8.102008 -12.4067 1.124335 -0 13.71297 -0 -13.0671 0.5276913 0.8472631 -1.687206 -2.785798 -7.159036 -0 65.14409 -0 -2.464987 -1.128916 7.704717 -0.9311871 -0.8590525 5.583714 1.973733 10.10045 -7.043359 1.056746 21.37226 6.377928 3.695907 -23.1886 7.195562 5.631045 -17.87511 11.6998 84.25039 34.3731 -17.04476 -0 0 13.35234 -12.9475 11.43407 8.378791 5.863488 -21.446 -1.596924 -91.91808 25.11733 20.87622 0 0 -18.16786 5.480092 13.79115 8.721929
2.169902 108.6646 66.43202 -1.175714 -3.761086 -1.285223 6.61318 -6.142434 0.4916718 -0 10.46128 -0 -13.38504 -1.359273 0.9392406 -1.465661 -9.51294 -6.714108 -0 65.91328 -0 -2.528859 -0.9324628 8.534543 -0.8914481 -0.7738632 6.219178 1.492106 10.2845 -6.613184 1.045304 21.72336 5.944383 3.482526 -22.17852 6.68704 5.294583 -18.4852 11.65927 83.36803 34.5832 -15.3336 -0 0 14.22473 -14.34663 11.70867 9.245198 5.742565 -21.36781 -1.50149 -91.85663 25.068 21.59335 0 0 -17.74324 4.986946 13.69754 9.417963
2.157983 109.571 71.64119 -0.2462422 -4.540817 -1.762671 5.538864 -0.4643345 -0.220375 -0 7.822618 -0 -13.73162 -3.174741 1.245296 -0.6362253 -15.77898 -5.781299 -0 60.76862 -0 -1.763461 -1.552601 9.909153 -0.8689131 -0.7249234 6.935724 0.9478012 10.39742 -6.119699 1.066314 21.98184 5.497714 3.28029 -21.1663 6.205081 4.88365 -19.26594 11.58173 82.25228 34.81109 -13.24311 -0 0 15.46732 -15.90047 11.97395 10.17813 5.685707 -21.19246 -1.313118 -91.77365 24.89755 22.40255 0 0 -17.30964 4.5529 13.54033 9.989158
2.129894 109.7551 76.69043 -0.05056014 -5.185072 -2.127922 5.525266 4.032965 -0.5368706 -0 6.70598 -0 -13.63405 -5.409009 1.199009 1.236099 -20.56176 -4.062524 -0 50.37321 -0 -0.4292905 -2.095354 11.62107 -0.8642528 -0.7070119 7.678746 0.3834206 10.40383 -5.59219 1.117 22.10457 5.07936 3.111598 -20.23034 5.779515 4.421783 -20.1642 11.47046 80.93019 35.00093 -10.86097 -0 0 17.03521 -17.53389 12.20739 11.14562 5.692446 -20.89866 -1.04838 -91.66577 24.62232 23.24989 0 0 -16.91787 4.141232 13.28708 10.45717
2.195837 109.2517 81.76125 -0.5526058 -5.490853 -2.502412 6.274828 7.248203 -0.333267 -0 7.016449 -0 -12.74998 -8.277816 0.6662495 3.598947 -23.38382 -2.021443 -0 37.38589 -0 0.8958772 -2.11991 13.16434 -0.8823498 -0.7052363 8.381254 -0.1500075 10.29444 -5.069358 1.187296 22.08164 4.734752 2.99724 -19.44098 5.433719 3.954385 -21.08478 11.3376 79.48989 35.10994 -8.365275 -0 0 18.79108 -19.14693 12.39197 12.09584 5.74271 -20.49016 -0.744047 -91.5422 24.2888 24.06164 0 0 -16.59964 3.712138 12.9208 10.87179
